<svg width="415" height="613" viewBox="0 0 415 613" fill="none" xmlns="http://www.w3.org/2000/svg">
    <circle cx="202" cy="246" r="246" fill="#9AA2FD"/>
    <circle cx="202" cy="246" r="246" fill="#949DFF"/>
    <circle cx="207.5" cy="332" r="211" fill="#9AA2FD"/>
    <circle cx="207.5" cy="332" r="211" fill="#99A1FF"/>
    <circle cx="207.5" cy="332" r="177" fill="#9AA2FD"/>
    <circle cx="207.5" cy="332" r="177" fill="#9EA6FF"/>
    <path d="M296.9 141C295.329 132.773 286.645 128.573 282.5 127.502C292.449 124.931 297.118 132.858 298.209 137.143C309.205 130.973 316.318 135.001 318.5 137.786C310.122 135.215 300.609 138.857 296.9 141Z" fill="#B4BAFF"/>
    <path d="M62.3 157C61.34 152.299 56.0333 149.899 53.5 149.287C59.58 147.818 62.4333 152.348 63.1 154.796C69.82 151.27 74.1667 153.572 75.5 155.164C70.38 153.694 64.5667 155.776 62.3 157Z" fill="#B4BAFF"/>
    <circle cx="207.5" cy="332" r="142" fill="#A3ABFF"/>
    <rect x="-1.5" y="371" width="416" height="266" fill="#8C96FF"/>
    <path d="M67.0835 339L-8.5 372H421.5L347.998 339H67.0835Z" fill="#8C96FF"/>
    <path d="M180.98 277.64L166.7 300.84L194.09 333.37H221.71L247.46 300.29L231.52 277.64H180.98Z" fill="#3F4553"/>
    <path d="M166.7 300.84C166.7 300.84 105.27 305.59 89.8599 321.68C74.4499 337.77 81.6999 355.24 96.7099 355.24C124.34 355.24 182.8 356.93 210.46 355.24L212.11 317.57L166.7 300.84Z" fill="#3F4553"/>
    <path d="M245.87 300.04C245.87 300.04 310.2 305.59 325.61 321.68C341.02 337.77 332.14 348.43 318.76 355.24C299.93 364.83 232.06 363.24 196.86 351.59L203.37 317.57L245.87 300.04Z" fill="#3F4553"/>
    <path d="M248.7 331.64L244.35 320.4L249.77 317.99C249.77 317.99 249.02 311.34 255.65 310.06C262.28 308.78 270.18 313.06 277.88 309.61C284.98 306.43 293.67 303.5 301.78 307.9C302.98 308.55 303.54 309.98 303.13 311.28L303.1 311.38C302.69 312.69 301.41 313.5 300.04 313.36C297.18 313.07 292.08 313.13 287.04 316.18C278.35 321.46 248.7 331.64 248.7 331.64Z" fill="#FEBBA0"/>
    <path d="M299.31 332.28C299.31 332.28 256.38 324.65 165.95 323.47L157.22 335.31C157.22 335.31 179.72 348.17 200.84 352.82C221.96 357.47 294.87 372.11 327.43 349.56L299.31 332.28Z" fill="#3F4553"/>
    <path d="M200.84 352.83C179.19 347.83 156.54 335.01 156.54 335.01L157.89 332.72" stroke="#6E758F" stroke-width="1.5925" stroke-miterlimit="10" stroke-linecap="round"/>
    <path d="M165.95 323.47C165.95 323.47 265.3 321.2 291.81 336.58" stroke="#6E758F" stroke-width="1.5925" stroke-miterlimit="10" stroke-linecap="round"/>
    <path d="M117.18 329.91C117.18 329.91 135.32 321.41 147.72 326.98" stroke="#6E758F" stroke-width="1.5925" stroke-miterlimit="10" stroke-linecap="round"/>
    <path d="M159.31 333.35L165.94 323.25L159.31 319.66C159.31 319.66 156.99 313.85 150.49 312.05C143.98 310.26 139.35 313.15 131.94 309.11C125.11 305.38 116.67 301.79 108.25 305.54C107.01 306.09 106.33 307.47 106.64 308.8L106.66 308.9C106.97 310.24 108.18 311.14 109.55 311.11C112.42 311.04 117.51 311.5 122.29 314.94C130.54 320.88 159.31 333.35 159.31 333.35Z" fill="#FEBBA0"/>
    <path d="M216.39 323.83L243.55 321.16" stroke="#6E758F" stroke-width="1.5925" stroke-miterlimit="10" stroke-linecap="round"/>
    <path d="M181.85 312.06L197 323.03" stroke="#6E758F" stroke-width="1.5925" stroke-miterlimit="10" stroke-linecap="round"/>
    <path d="M177.94 162.77C178.58 169.03 184.03 173.59 190.11 172.97C196.19 172.35 200.6 166.77 199.96 160.52C199.32 154.26 193.87 149.7 187.79 150.32C181.72 150.93 177.31 156.51 177.94 162.77Z" fill="#3F4553"/>
    <path d="M200.65 167.32C200.65 167.32 181.33 164.4 178.29 146.17C175.61 130.06 186.42 117.15 198.27 114.92C198.28 114.92 226.75 158.8 200.65 167.32Z" fill="#3F4553"/>
    <path d="M201.09 116.65C199.67 117.35 198.32 118.27 197.09 119.46C186.08 130.05 193.05 150.61 202.91 159.89C208.37 165.02 216.35 167.41 223.32 164.79C233.51 160.96 236.7 149.42 234.63 139.14C233.09 131.48 228.84 124.25 222.57 119.75C216.3 115.26 207.83 113.36 201.09 116.65Z" fill="#FDBCA0"/>
    <path d="M199.26 153.69C197.33 155.6 193.97 156.38 191.39 155.47C188.81 154.56 186.69 152.13 186.02 149.31C185.42 146.78 186.07 143.9 187.93 142.35C189.79 140.8 193.14 140.9 194.73 142.91L199.26 153.69Z" fill="#FDBCA0"/>
    <path d="M196.44 146.97L198.47 183.31C198.74 190.03 204.19 195.37 210.91 195.5C218.67 195.66 224.76 188.88 223.77 181.18L219.67 147.44L196.44 146.97Z" fill="#FDBCA0"/>
    <path d="M222.43 170.22L221.92 165.24C221.92 165.24 211.92 168.31 202.91 159.88C202.91 159.89 208.1 169.36 222.43 170.22Z" fill="#DF8370"/>
    <path d="M192.47 141.48C205.49 140.81 217.37 132.07 223.93 120.81C223.93 120.81 211.95 109.44 194.44 116.09C179.93 121.59 192.47 141.48 192.47 141.48Z" fill="#3F4553"/>
    <path d="M193.9 149.84C192.4 149.99 191.09 149.18 190.97 148.03C190.88 147.16 191.49 146.35 192.43 145.93" stroke="#444359" stroke-width="1.1144" stroke-miterlimit="10" stroke-linecap="round"/>
    <path d="M225.18 147C225.48 146.09 226 145.37 226.58 144.69L226.86 145.57C226.2 145.32 225.84 144.94 225.47 144.57C225.12 144.18 224.81 143.79 224.53 143.37C223.97 142.54 223.5 141.66 223.16 140.73C223.86 141.44 224.5 142.17 225.17 142.87C225.51 143.21 225.83 143.56 226.18 143.86C226.51 144.15 226.9 144.45 227.17 144.52L227.98 144.71L227.45 145.4C226.91 146.11 226.31 146.77 225.48 147.25C225.38 147.31 225.26 147.27 225.2 147.18C225.17 147.11 225.17 147.05 225.18 147Z" fill="#444359"/>
    <path d="M228.11 150.18C227.71 151 227.03 151.71 226.15 152.14C225.28 152.59 224.2 152.68 223.24 152.4C222.26 152.13 221.5 151.49 220.85 150.83C220.56 150.47 220.27 150.1 220.03 149.72C219.82 149.31 219.6 148.91 219.44 148.49C219.81 148.77 220.13 149.07 220.45 149.37L221.44 150.19C222.14 150.65 222.8 151.15 223.56 151.33C224.29 151.56 225.07 151.55 225.84 151.34C226.6 151.12 227.36 150.69 228.11 150.18Z" fill="#444359"/>
    <path d="M217.64 137.11C218.03 138.27 218.25 139.47 218.17 140.76C218.12 141.39 217.97 142.08 217.5 142.69C217.02 143.31 216.21 143.58 215.5 143.56C214.77 143.55 214.05 143.23 213.56 142.78C213.05 142.33 212.65 141.81 212.35 141.26C211.75 140.15 211.37 138.99 211.18 137.77C211.15 137.58 211.28 137.4 211.47 137.36C211.65 137.33 211.81 137.44 211.86 137.6L211.87 137.62C212.21 138.7 212.66 139.79 213.24 140.73C213.82 141.64 214.61 142.48 215.54 142.45C216 142.47 216.43 142.35 216.69 142.02C216.98 141.7 217.12 141.18 217.2 140.65C217.35 139.58 217.25 138.4 217.07 137.27V137.25C217.04 137.09 217.16 136.93 217.32 136.91C217.45 136.89 217.59 136.98 217.64 137.11Z" fill="#444359"/>
    <path d="M232.16 134.84C232.49 135.82 232.67 136.82 232.65 137.89C232.64 138.42 232.54 139 232.2 139.55C231.87 140.13 231.13 140.49 230.49 140.46C229.82 140.45 229.21 140.1 228.82 139.69C228.42 139.27 228.11 138.82 227.88 138.34C227.43 137.38 227.15 136.4 227.01 135.37C226.98 135.18 227.12 135 227.32 134.97C227.49 134.95 227.65 135.05 227.7 135.21L227.71 135.23C228 136.13 228.35 137.05 228.8 137.85C229.25 138.63 229.86 139.38 230.53 139.34C230.87 139.35 231.14 139.25 231.32 138.97C231.52 138.69 231.62 138.26 231.68 137.81C231.78 136.91 231.7 135.92 231.59 134.98V134.96C231.57 134.8 231.69 134.65 231.85 134.62C231.98 134.62 232.12 134.71 232.16 134.84Z" fill="#444359"/>
    <path d="M242.96 186.61C242.87 180.51 223.09 175.63 223.09 175.63C221.85 177 219.72 179.31 210.75 179.31C202.17 179.31 198.74 177.09 197.4 175.63H188.91C187.02 175.63 185.29 176.71 184.5 178.43C167.49 215.64 177.05 257.2 180.97 277.63C181.33 279.51 216.83 278.24 232.84 279.51C236.3 279.8 243.3 208.78 242.96 186.61Z" fill="#FEE6C6"/>
    <path d="M201.65 239.23C203.41 225.01 205.56 216.48 207.21 219.28C208.67 221.76 207.86 234.2 205.67 246.2C205.68 246.2 200.9 245.32 201.65 239.23Z" fill="#FEBBA0"/>
    <path d="M213.27 239.23C211.51 225.01 209.36 216.48 207.71 219.28C206.25 221.76 207.06 234.2 209.25 246.2C209.24 246.2 214.02 245.32 213.27 239.23Z" fill="#FEBBA0"/>
    <path d="M271.89 235.7H249.54L253.09 258.4L212.53 238.61C212.39 237.09 212.2 235.21 211.97 233.22C210.44 233.22 208.9 233.22 207.37 233.2C207.38 234.93 207.41 236.1 207.41 236.1C207.41 236.1 206.62 246.54 208.43 250.02C211.87 256.64 247.06 277.96 256.83 280.49C257.44 280.65 258.05 280.77 258.66 280.85C268.09 282.18 274.34 276.89 274.27 267.37L271.89 235.7Z" fill="#FEBBA0"/>
    <path d="M202.55 233.12C202.2 235.36 201.89 237.52 201.65 239.23L162.26 257.47L163.92 235.71H141.57L139.2 267.4C139.14 276.92 145.39 282.2 154.81 280.88C155.42 280.79 156.03 280.67 156.64 280.52C166.41 277.99 199.14 260.3 206.13 249.98C208.2 246.93 207.22 236.66 207.22 236.66C207.22 236.66 207.22 235.24 207.18 233.22C205.64 233.19 204.1 233.16 202.55 233.12Z" fill="#FEBBA0"/>
    <path d="M169.64 248.12C178.38 222.27 178.31 222.25 189.04 175.64C181.86 176.13 181.12 174.96 175.46 177.9C158.48 186.72 142.49 215.69 137.78 248.12H169.64Z" fill="#FEE6C6"/>
    <path d="M247.46 245.57C242.32 227.26 223.09 175.64 223.09 175.64C242.32 174.99 268.56 200.06 274.84 242.22L247.46 245.57Z" fill="#FEE6C6"/>
    <path d="M242.97 205.14L238.92 238.42" stroke="#EED2AD" stroke-width="1.5925" stroke-miterlimit="10" stroke-linecap="round"/>
    <path d="M173.32 210.6L176.54 246.2" stroke="#EED2AD" stroke-width="1.5925" stroke-miterlimit="10" stroke-linecap="round"/>
    <path d="M345.748 178.025C297.749 164.525 304.748 205.025 314.748 205.025C318.857 205.025 327.373 206.025 337.749 206.025H369.249C409.248 206.025 420.749 203.358 421.249 202.525C424.749 176.025 403.582 178.525 392.249 181.525C394.082 171.692 392.149 151.825 369.748 151.025C347.348 150.225 344.415 168.692 345.748 178.025Z" fill="#B4BAFF"/>
    <path d="M8.25573 102.787C-12.7717 96.8992 -9.70541 114.564 -5.3247 114.564C-3.5249 114.564 0.205866 115 4.75144 115H18.5509C36.0738 115 41.1117 113.837 41.331 113.473C42.8643 101.915 33.5916 103.005 28.6267 104.314C29.4299 100.025 28.5828 91.3599 18.7696 91.011C8.95638 90.662 7.67151 98.7165 8.25573 102.787Z" fill="#A6ADFB"/>
    <circle cx="39.5" cy="80" r="6" fill="#A6ADFB"/>
    <circle cx="3" cy="3" r="3" transform="matrix(1 0 0 -1 27.5 69)" fill="#A6ADFB"/>
</svg>
